<svg width="41" height="41" viewBox="0 0 41 41" fill="none" xmlns="http://www.w3.org/2000/svg">
<path fill-rule="evenodd" clip-rule="evenodd" d="M20.5 6.125C12.5609 6.125 6.125 12.5609 6.125 20.5C6.125 28.4391 12.5609 34.875 20.5 34.875C28.4391 34.875 34.875 28.4391 34.875 20.5C34.875 12.5609 28.4391 6.125 20.5 6.125ZM4.125 20.5C4.125 11.4563 11.4563 4.125 20.5 4.125C29.5437 4.125 36.875 11.4563 36.875 20.5C36.875 29.5437 29.5437 36.875 20.5 36.875C11.4563 36.875 4.125 29.5437 4.125 20.5Z" fill="black"/>
<path fill-rule="evenodd" clip-rule="evenodd" d="M20.5 10.1042C21.0523 10.1042 21.5 10.552 21.5 11.1042V19.882L27.7805 23.0223C28.2745 23.2693 28.4748 23.87 28.2278 24.364C27.9808 24.8579 27.3801 25.0582 26.8861 24.8112L20.0528 21.3945C19.714 21.2251 19.5 20.8789 19.5 20.5001V11.1042C19.5 10.552 19.9477 10.1042 20.5 10.1042Z" fill="black"/>
</svg>
