<svg width="27" height="33" viewBox="0 0 27 33" fill="none" xmlns="http://www.w3.org/2000/svg">
<path fill-rule="evenodd" clip-rule="evenodd" d="M13.5077 8.95825C11.2295 8.95825 9.38269 10.8051 9.38269 13.0833C9.38269 15.3614 11.2295 17.2083 13.5077 17.2083C15.7859 17.2083 17.6327 15.3614 17.6327 13.0833C17.6327 10.8051 15.7859 8.95825 13.5077 8.95825ZM7.38269 13.0833C7.38269 9.70051 10.1249 6.95825 13.5077 6.95825C16.8904 6.95825 19.6327 9.70051 19.6327 13.0833C19.6327 16.466 16.8904 19.2083 13.5077 19.2083C10.1249 19.2083 7.38269 16.466 7.38269 13.0833Z" fill="black"/>
<path fill-rule="evenodd" clip-rule="evenodd" d="M13.5077 2.125C7.42098 2.125 2.54936 6.87397 2.54936 12.6562C2.54936 17.0905 5.33632 21.6606 8.29815 25.2306C9.75957 26.9922 11.2237 28.4631 12.3231 29.4939C12.7968 29.9379 13.2016 30.2991 13.5077 30.5655C13.8138 30.2991 14.2186 29.9379 14.6922 29.4939C15.7917 28.4631 17.2558 26.9922 18.7172 25.2306C21.6791 21.6606 24.466 17.0905 24.466 12.6562C24.466 6.87397 19.5944 2.125 13.5077 2.125ZM13.5077 31.875C12.8813 32.6545 12.8811 32.6543 12.8808 32.6541L12.88 32.6535L12.8776 32.6516L12.8696 32.6451L12.8409 32.6217C12.8162 32.6016 12.7805 32.5722 12.7346 32.5341C12.6427 32.4578 12.5096 32.346 12.3414 32.2011C12.005 31.9115 11.5273 31.4892 10.9553 30.9529C9.81255 29.8816 8.28707 28.3496 6.7589 26.5076C3.74156 22.8707 0.549356 17.8314 0.549356 12.6562C0.549356 5.70146 6.38559 0.125 13.5077 0.125C20.6298 0.125 26.466 5.70146 26.466 12.6562C26.466 17.8314 23.2738 22.8707 20.2565 26.5076C18.7283 28.3496 17.2028 29.8816 16.0601 30.9529C15.4881 31.4892 15.0104 31.9115 14.674 32.2011C14.5057 32.346 14.3727 32.4578 14.2808 32.5341C14.2349 32.5722 14.1992 32.6016 14.1745 32.6217L14.1458 32.6451L14.1378 32.6516L14.1346 32.6541C14.1343 32.6543 14.1341 32.6545 13.5077 31.875ZM13.5077 31.875L14.1346 32.6541C13.7687 32.9481 13.2466 32.9481 12.8808 32.6541L13.5077 31.875Z" fill="black"/>
</svg>
