<svg width="28" height="28" viewBox="0 0 28 28" fill="none" xmlns="http://www.w3.org/2000/svg">
<path fill-rule="evenodd" clip-rule="evenodd" d="M0.0693423 2.11023C-0.0247269 0.933479 0.924247 0 2.0406 0H6.43333C7.39078 0 8.21393 0.678575 8.39659 1.61844L9.70213 8.33601C9.82704 8.9787 9.62947 9.64183 9.17321 10.1114L5.74627 13.638C7.71584 17.0458 10.5816 20.259 14.6341 22.5251L18.6361 18.4066C19.1363 17.892 19.8738 17.6847 20.5688 17.8635L25.506 19.1337C26.3899 19.3611 27.0077 20.158 27.0077 21.0706V25.6585C27.0077 26.8069 26.029 27.7507 24.8451 27.6352C20.7719 27.2378 17.3028 26.1729 14.3652 24.6514C9.2877 22.0216 5.85717 18.0598 3.63039 13.9524C1.36821 9.77968 0.335106 5.43479 0.0693423 2.11023ZM16.5093 23.4652C18.9366 24.5497 21.7507 25.3206 25.0077 25.6415V21.0706L20.0705 19.8004L16.5093 23.4652ZM4.76542 11.7775L7.73887 8.71757L6.43333 2H2.06696C2.293 4.75174 3.09115 8.28381 4.76542 11.7775Z" fill="black"/>
</svg>
